<?xml version="1.0" encoding="UTF-8"?>
<svg version="1.1" xmlns="http://www.w3.org/2000/svg" width="288" height="289">
<path d="M0 0 C2.06079986 -0.00570845 4.12159655 -0.01267455 6.18238831 -0.02079773 C11.75891616 -0.03869223 17.33528633 -0.03756764 22.91183424 -0.03185534 C27.57617748 -0.02875796 32.24049067 -0.03486211 36.90482962 -0.04089409 C47.91330392 -0.05492571 58.9217006 -0.05338952 69.93017578 -0.04199219 C81.26712202 -0.03051377 92.60383161 -0.04458524 103.94074667 -0.07138866 C113.69308901 -0.09357799 123.44535725 -0.1001757 133.19772303 -0.09431225 C139.01406881 -0.09094905 144.83026294 -0.09331539 150.64658737 -0.11056328 C156.11816994 -0.12608169 161.5894032 -0.12202248 167.06097221 -0.10325813 C169.06196084 -0.09958573 171.06297562 -0.10264109 173.06394005 -0.11314392 C189.19509235 -0.19131018 201.79237483 1.68820911 214.31103516 12.71655273 C229.06093231 29.40722583 229.99691404 46.18645935 229.94482422 67.61157227 C229.94754023 69.50547418 229.95110457 71.39937504 229.95544434 73.29327393 C229.96449681 78.3964204 229.96105413 83.49948525 229.95468616 88.602633 C229.94959043 93.96481691 229.95432735 99.32699426 229.9574585 104.68917847 C229.96108715 113.68838749 229.95632735 122.68756357 229.94677734 131.68676758 C229.93588831 142.06716012 229.9394261 152.44747411 229.95043015 162.82786477 C229.95952655 171.76924404 229.96077701 180.71059978 229.95555282 189.65198219 C229.95244689 194.97973344 229.95198585 200.30744785 229.95862579 205.63519669 C229.96443319 210.64383089 229.96034064 215.65236444 229.94883728 220.66098785 C229.94620905 222.49104775 229.94692408 224.32111623 229.95136261 226.15117264 C229.99073531 244.04417951 229.03330961 261.90596162 215.68603516 275.40405273 C206.91634946 282.96133948 196.98944769 288.47432976 185.23376465 288.56900024 C184.12331284 288.58023422 183.01286102 288.5914682 181.86875916 288.6030426 C180.6528157 288.61036911 179.43687225 288.61769562 178.18408203 288.62524414 C176.89796524 288.63675003 175.61184845 288.64825592 174.28675842 288.66011047 C170.73918024 288.69152582 167.19158318 288.71665734 163.64394569 288.74030733 C160.63046556 288.76090883 157.61701066 288.78441639 154.60355139 288.80784452 C147.41020808 288.8636517 140.21684041 288.91422102 133.0234375 288.96166992 C126.57969605 289.00425612 120.13603403 289.05263154 113.69238281 289.10717773 C80.53043959 289.3864024 47.3667642 289.55903878 14.20457458 289.22016525 C11.24669209 289.19022704 8.28894883 289.16869462 5.33094788 289.1549263 C1.2463758 289.1350025 -2.83714919 289.08262206 -6.92138672 289.02661133 C-8.10698181 289.02418301 -9.2925769 289.02175468 -10.51409912 289.01925278 C-24.8340711 288.75192358 -35.63757703 283.7650504 -46.06396484 274.09155273 C-58.43618325 260.98984032 -58.76087094 246.08655849 -58.71801758 229.08422852 C-58.72372733 227.03475575 -58.73069393 224.98528616 -58.73881531 222.93582153 C-58.75669534 217.39440826 -58.75558797 211.85315378 -58.74987292 206.31172037 C-58.74677346 201.67475978 -58.75288198 197.03782935 -58.75891167 192.40087306 C-58.77293851 181.45610644 -58.77141106 170.5114179 -58.76000977 159.56665039 C-58.74853162 148.29957121 -58.76260346 137.03273015 -58.78940624 125.76568234 C-58.81160342 116.0693546 -58.81819152 106.37310139 -58.81232983 96.67675006 C-58.80896853 90.89559847 -58.81132025 85.11459947 -58.82858086 79.33346939 C-58.84411187 73.89470085 -58.84002624 68.45628351 -58.82127571 63.01752853 C-58.81760678 61.02985956 -58.82064837 59.04216421 -58.8311615 57.05451965 C-58.9179209 39.28494895 -56.50936852 26.16494868 -44.00146484 12.65405273 C-31.05357367 0.39979859 -16.82581599 -0.04208562 0 0 Z " fill="#0C0C0C" transform="translate(58.31396484375,-0.404052734375)"/>
<path d="M0 0 C2.06079986 -0.00570845 4.12159655 -0.01267455 6.18238831 -0.02079773 C11.75891616 -0.03869223 17.33528633 -0.03756764 22.91183424 -0.03185534 C27.57617748 -0.02875796 32.24049067 -0.03486211 36.90482962 -0.04089409 C47.91330392 -0.05492571 58.9217006 -0.05338952 69.93017578 -0.04199219 C81.26712202 -0.03051377 92.60383161 -0.04458524 103.94074667 -0.07138866 C113.69308901 -0.09357799 123.44535725 -0.1001757 133.19772303 -0.09431225 C139.01406881 -0.09094905 144.83026294 -0.09331539 150.64658737 -0.11056328 C156.11816994 -0.12608169 161.5894032 -0.12202248 167.06097221 -0.10325813 C169.06196084 -0.09958573 171.06297562 -0.10264109 173.06394005 -0.11314392 C189.19509235 -0.19131018 201.79237483 1.68820911 214.31103516 12.71655273 C229.06093231 29.40722583 229.99691404 46.18645935 229.94482422 67.61157227 C229.94754023 69.50547418 229.95110457 71.39937504 229.95544434 73.29327393 C229.96449681 78.3964204 229.96105413 83.49948525 229.95468616 88.602633 C229.94959043 93.96481691 229.95432735 99.32699426 229.9574585 104.68917847 C229.96108715 113.68838749 229.95632735 122.68756357 229.94677734 131.68676758 C229.93588831 142.06716012 229.9394261 152.44747411 229.95043015 162.82786477 C229.95952655 171.76924404 229.96077701 180.71059978 229.95555282 189.65198219 C229.95244689 194.97973344 229.95198585 200.30744785 229.95862579 205.63519669 C229.96443319 210.64383089 229.96034064 215.65236444 229.94883728 220.66098785 C229.94620905 222.49104775 229.94692408 224.32111623 229.95136261 226.15117264 C229.99073531 244.04417951 229.03330961 261.90596162 215.68603516 275.40405273 C206.83180649 283.03419449 196.86792951 288.53517169 185.00396729 288.52430725 C183.84572952 288.52568192 182.68749176 288.52705658 181.49415588 288.5284729 C180.22748581 288.52487762 178.96081573 288.52128235 177.65576172 288.51757812 C176.3054352 288.51729598 174.95510853 288.51745451 173.6047821 288.51802063 C169.9418992 288.51830755 166.27904904 288.51242776 162.61617374 288.50544667 C158.7871473 288.49919569 154.95812011 288.49860795 151.12908936 288.49742126 C143.87956682 288.4943131 136.63005937 288.48610664 129.38054347 288.47607177 C121.12667997 288.46489467 112.87281574 288.45939616 104.61894655 288.45437634 C87.6413007 288.44392361 70.66366952 288.42633411 53.68603516 288.40405273 C56.64440314 286.15109552 59.62126036 284.20700242 62.85009766 282.35717773 C63.87619141 281.76743164 64.90228516 281.17768555 65.95947266 280.57006836 C67.06548828 279.9377832 68.17150391 279.30549805 69.31103516 278.65405273 C70.47786138 277.9844088 71.64452524 277.3144819 72.81103516 276.64428711 C75.23391028 275.25256504 77.65747862 273.8620617 80.08154297 272.47241211 C85.62293543 269.29434243 91.15394262 266.09827301 96.68603516 262.90405273 C98.85265297 261.65396806 101.0193198 260.40396833 103.18603516 259.15405273 C104.25853516 258.53530273 105.33103516 257.91655273 106.43603516 257.27905273 C116.18603515 251.65405274 116.18603515 251.65405274 119.43652344 249.77880859 C121.60160586 248.52969755 123.76664498 247.28051144 125.93164062 246.03125 C131.37219221 242.89202964 136.81350731 239.75414711 142.25634766 236.61889648 C152.70809701 230.59657953 163.14904555 224.55738484 173.56103516 218.46655273 C186.87801232 210.67752584 200.27934121 203.03725738 213.68603516 195.40405273 C214.06788608 192.24079068 214.29536092 189.0833947 214.49853516 185.90405273 C214.60746094 185.01717773 214.71638672 184.13030273 214.82861328 183.21655273 C214.97364933 180.18195232 214.83714747 178.2293851 213.68603516 175.40405273 C210.27918702 172.42285131 206.52504651 170.37853808 202.51480103 168.34436035 C199.65919003 166.87607356 196.9068554 165.23500936 194.13525391 163.61499023 C191.88240192 162.3344878 189.62846425 161.0558939 187.37353516 159.77905273 C184.92077481 158.38486348 182.46926458 156.98848639 180.01806641 155.59155273 C179.40576172 155.24273041 178.79345703 154.89390808 178.16259766 154.53451538 C171.94067492 150.98611366 165.746883 147.38994914 159.56103516 143.77905273 C158.6093042 143.2239502 157.65757324 142.66884766 156.67700195 142.09692383 C139.10820582 131.8262234 139.10820582 131.8262234 137.68603516 130.40405273 C137.59015392 128.84784878 137.56415483 127.2872882 137.56578064 125.72813416 C137.56440598 124.717061 137.56303131 123.70598785 137.56161499 122.66427612 C137.56521027 121.54578278 137.56880554 120.42728943 137.57250977 119.27490234 C137.57236374 118.10432785 137.57221771 116.93375336 137.57206726 115.72770691 C137.5726462 112.50884331 137.57767524 109.2900227 137.58464122 106.07116771 C137.59087559 102.71057874 137.59147862 99.349989 137.59266663 95.98939514 C137.5957797 89.62162932 137.60399275 83.25388058 137.61401612 76.88612229 C137.62517801 69.63835545 137.63068789 62.39058781 137.63571155 55.14281452 C137.64617539 40.22988439 137.66377436 25.31697027 137.68603516 10.40405273 C136.91710937 10.10587646 136.14818359 9.8077002 135.35595703 9.50048828 C131.47840386 7.90812441 127.99443406 5.701365 124.40478516 3.54858398 C121.11591175 2.16404389 120.02262136 2.20848437 116.68603516 3.40405273 C114.22500791 4.71776835 111.87132428 6.07166594 109.49853516 7.52905273 C107.97329414 8.44575079 106.44719566 9.36102313 104.92041016 10.27514648 C104.08574219 10.77643066 103.25107422 11.27771484 102.39111328 11.79418945 C97.37442489 14.77975292 92.3088907 17.68083894 87.24853516 20.59155273 C84.99980757 21.88707415 82.75111005 23.18264775 80.50244141 24.47827148 C79.37338379 25.12844238 78.24432617 25.77861328 77.08105469 26.44848633 C71.61433541 29.59737324 66.1502587 32.75083764 60.68603516 35.90405273 C54.16371076 39.66770639 47.64089752 43.43049896 41.11572266 47.18920898 C30.66397323 53.21152598 20.22303223 59.25073338 9.81103516 65.34155273 C-0.26225137 71.23322074 -10.38362098 77.03761205 -20.52441406 82.81201172 C-22.17594482 83.75282593 -22.17594482 83.75282593 -23.86083984 84.71264648 C-24.81829102 85.25719482 -25.77574219 85.80174316 -26.76220703 86.36279297 C-27.54166058 86.83272989 -27.54166058 86.83272989 -28.33686066 87.31216049 C-30.31396484 88.40405273 -30.31396484 88.40405273 -33.22899628 89.6637001 C-39.62819897 92.62439447 -39.62819897 92.62439447 -43.45267105 98.23387241 C-43.90872791 101.79990355 -43.98159903 105.20470703 -43.93017578 108.79980469 C-43.95301465 110.15414406 -43.98088137 111.5084065 -44.0133667 112.86254883 C-44.0849378 116.52702848 -44.08045999 120.18767083 -44.05759716 123.85263848 C-44.04519887 126.91922018 -44.06963217 129.98507206 -44.09375215 133.05154961 C-44.14987749 140.29166173 -44.14374593 147.52988597 -44.09814453 154.77001953 C-44.05225089 162.2208137 -44.10844264 169.66584358 -44.21573043 177.11587745 C-44.30459267 183.52842153 -44.33085884 189.93916379 -44.30742478 196.35227937 C-44.29398694 200.17574915 -44.30328768 203.9955283 -44.37242889 207.81847572 C-45.31505838 222.92317672 -45.31505838 222.92317672 -40.74902916 236.63184547 C-37.06867571 240.07334234 -33.00714807 242.0307852 -28.28461361 243.67282867 C-25.3297324 244.76925959 -22.75184859 246.40496005 -20.08349609 248.06420898 C-18.09935539 249.20100934 -16.11364493 250.33507376 -14.12646484 251.46655273 C-11.88114536 252.75339263 -9.63637509 254.04119119 -7.39208984 255.32983398 C-6.81858292 255.65893768 -6.24507599 255.98804138 -5.65419006 256.32711792 C1.74920769 260.58080562 9.10769877 264.91121983 16.46820068 269.23855591 C22.54585371 272.81165704 28.62563978 276.37953979 34.74072266 279.88842773 C35.63927979 280.404375 36.53783691 280.92032227 37.46362305 281.4519043 C39.10935069 282.39467498 40.75687695 283.3343154 42.40649414 284.27026367 C44.18227418 285.2875386 45.93714437 286.341215 47.68603516 287.40405273 C47.68603516 287.73405273 47.68603516 288.06405273 47.68603516 288.40405273 C39.02725762 288.49724876 30.36865606 288.5680667 21.7094841 288.61130142 C17.68748855 288.63206513 13.66583929 288.66017372 9.64404297 288.70581055 C5.75364083 288.7496738 1.86356912 288.77327388 -2.02706146 288.78356171 C-3.50205426 288.79088128 -4.97703157 288.80517198 -6.45188141 288.82697296 C-22.53420708 289.05497244 -34.20588592 285.093359 -46.06396484 274.09155273 C-58.43618325 260.98984032 -58.76087094 246.08655849 -58.71801758 229.08422852 C-58.72372733 227.03475575 -58.73069393 224.98528616 -58.73881531 222.93582153 C-58.75669534 217.39440826 -58.75558797 211.85315378 -58.74987292 206.31172037 C-58.74677346 201.67475978 -58.75288198 197.03782935 -58.75891167 192.40087306 C-58.77293851 181.45610644 -58.77141106 170.5114179 -58.76000977 159.56665039 C-58.74853162 148.29957121 -58.76260346 137.03273015 -58.78940624 125.76568234 C-58.81160342 116.0693546 -58.81819152 106.37310139 -58.81232983 96.67675006 C-58.80896853 90.89559847 -58.81132025 85.11459947 -58.82858086 79.33346939 C-58.84411187 73.89470085 -58.84002624 68.45628351 -58.82127571 63.01752853 C-58.81760678 61.02985956 -58.82064837 59.04216421 -58.8311615 57.05451965 C-58.9179209 39.28494895 -56.50936852 26.16494868 -44.00146484 12.65405273 C-31.05357367 0.39979859 -16.82581599 -0.04208562 0 0 Z " fill="#FEFEFE" transform="translate(58.31396484375,-0.404052734375)"/>
<path d="M0 0 C0.30415863 14.59450204 0.5331514 29.18858296 0.67355824 43.78561401 C0.74049711 50.56404779 0.8316822 57.34050881 0.98071289 64.11767578 C1.12450695 70.65984633 1.19972347 77.20073901 1.23340416 83.74441528 C1.25740045 86.23894486 1.30426496 88.73336392 1.37449074 91.22702026 C1.88918313 110.26282428 1.88918313 110.26282428 -1.24064445 114.79752922 C-4.67460454 118.01167881 -8.59158032 119.44078437 -13 121 C-15.03644413 122.13972992 -17.05480019 123.31316002 -19.04296875 124.53515625 C-21.09004474 125.71285349 -23.13825822 126.88857538 -25.1875 128.0625 C-26.89042782 129.04151113 -28.5933538 130.02052547 -30.2961731 130.99972534 C-32.04395461 132.00447299 -33.79220596 133.00839914 -35.54052734 134.01220703 C-41.03139237 137.1672263 -46.51547345 140.33397963 -52 143.5 C-54.16663141 144.75006112 -56.33329814 146.000061 -58.5 147.25 C-60.10875 148.178125 -60.10875 148.178125 -61.75 149.125 C-97.5 169.75 -97.5 169.75 -100.75390625 171.62719727 C-102.9076172 172.86976019 -105.06126367 174.11243489 -107.21484375 175.35522461 C-112.23684262 178.25314623 -117.25942807 181.15003349 -122.28442383 184.04275513 C-124.05045522 185.05947198 -125.81627431 186.07655658 -127.58203125 187.09375 C-129.78734155 188.36400873 -131.99304216 189.63359018 -134.19921875 190.90234375 C-139.86414009 194.16638294 -145.48323534 197.48428892 -151.0390625 200.93139648 C-153 202 -153 202 -155 202 C-155 164.71 -155 127.42 -155 89 C-145.76 83.72 -136.52 78.44 -127 73 C-117.98904238 67.7514822 -117.98904238 67.7514822 -108.984375 62.4921875 C-99.44177067 56.91570844 -89.85942207 51.40788509 -80.28222656 45.89111328 C-74.85340062 42.76319854 -69.42677993 39.63146269 -64 36.5 C-57.47766725 32.73636081 -50.95486238 28.97355378 -44.4296875 25.21484375 C-42.24474762 23.95580561 -40.05985151 22.69669149 -37.875 21.4375 C-36.81547119 20.82704834 -35.75594238 20.21659668 -34.66430664 19.58764648 C-29.12158455 16.39058916 -23.5875513 13.17944404 -18.06640625 9.9453125 C-16.95346191 9.29377197 -15.84051758 8.64223145 -14.69384766 7.97094727 C-12.56082811 6.72084876 -10.42894736 5.46880464 -8.29833984 4.21459961 C-7.35297363 3.6603833 -6.40760742 3.10616699 -5.43359375 2.53515625 C-4.18147095 1.79857788 -4.18147095 1.79857788 -2.90405273 1.04711914 C-1 0 -1 0 0 0 Z " fill="#FCFCFC" transform="translate(191,17)"/>
<path d="M0 0 C4.72780822 1.86560042 9.0315235 4.32517728 13.4140625 6.88671875 C14.41920898 7.46470215 15.42435547 8.04268555 16.45996094 8.63818359 C19.65899157 10.48171799 22.84970699 12.33900365 26.0390625 14.19921875 C28.09891929 15.39590054 30.15881456 16.59251611 32.21875 17.7890625 C36.23006983 20.1229505 40.2375063 22.46333457 44.2421875 24.80859375 C49.83121066 28.08103991 55.43263271 31.33170202 61.0390625 34.57421875 C61.8527832 35.0448877 62.66650391 35.51555664 63.50488281 36.00048828 C65.34941248 37.06707236 67.19420389 38.13320375 69.0390625 39.19921875 C67.72503071 43.14131413 66.25049597 43.49979407 62.66015625 45.5 C61.52368652 46.1401001 60.3872168 46.7802002 59.21630859 47.43969727 C57.34643555 48.47570801 57.34643555 48.47570801 55.4765625 49.51171875 C53.54606441 50.59502184 51.61746363 51.68165442 49.68884277 52.76829529 C48.37735984 53.50681681 47.06526039 54.24424452 45.75256348 54.98060608 C39.76654918 58.34002302 33.83446863 61.78805437 27.9140625 65.26171875 C14.22890408 73.27004543 0.48804052 81.18097948 -13.25195312 89.09472656 C-23.88008725 95.2171128 -34.50756009 101.34033398 -45.10180664 107.52124023 C-47.07370032 108.67133678 -49.04682482 109.81932591 -51.02124023 110.96508789 C-56.25590277 114.00837486 -61.45446351 117.10021897 -66.62109375 120.2578125 C-67.71341309 120.9170874 -68.80573242 121.5763623 -69.93115234 122.25561523 C-72.03300617 123.52537228 -74.12627091 124.80948725 -76.20947266 126.10961914 C-77.15226074 126.67543701 -78.09504883 127.24125488 -79.06640625 127.82421875 C-79.89293701 128.33210937 -80.71946777 128.84 -81.57104492 129.36328125 C-83.9609375 130.19921875 -83.9609375 130.19921875 -86.4128418 129.54345703 C-89.17464052 128.08648053 -91.91454646 126.6176045 -94.625 125.06640625 C-95.73439941 124.4326709 -96.84379883 123.79893555 -97.98681641 123.14599609 C-99.18665061 122.45562462 -100.38635446 121.76502656 -101.5859375 121.07421875 C-102.82859162 120.36145312 -104.07126774 119.64872584 -105.31396484 118.93603516 C-117.29776515 112.05040152 -129.20063173 105.02707202 -141.05957031 97.92871094 C-143.00614511 96.76836628 -144.95874342 95.61807179 -146.91699219 94.47753906 C-147.82610352 93.94483398 -148.73521484 93.41212891 -149.671875 92.86328125 C-150.4767334 92.39615723 -151.2815918 91.9290332 -152.11083984 91.44775391 C-153.9609375 90.19921875 -153.9609375 90.19921875 -154.9609375 88.19921875 C-154.23841797 87.78784668 -153.51589844 87.37647461 -152.77148438 86.95263672 C-139.11055608 79.17074026 -125.47057433 71.35779559 -111.89990234 63.41918945 C-101.37398526 57.26385024 -90.80909583 51.17664764 -80.24316406 45.09033203 C-73.73364161 41.33975476 -67.2269897 37.58419886 -60.72021484 33.82885742 C-55.25559087 30.67536713 -49.78945848 27.52454835 -44.3203125 24.37890625 C-43.22557617 23.74855469 -42.13083984 23.11820313 -41.00292969 22.46875 C-38.82759033 21.21684897 -36.65117592 19.96681392 -34.47363281 18.71875 C-29.15292969 15.65979221 -23.87346593 12.55206903 -18.6484375 9.33203125 C-17.14651855 8.41478271 -17.14651855 8.41478271 -15.61425781 7.47900391 C-13.72973391 6.32375843 -11.85347107 5.1548859 -9.98730469 3.97021484 C-3.91720314 0.26355852 -3.91720314 0.26355852 0 0 Z " fill="#F7F7F7" transform="translate(193.9609375,135.80078125)"/>
<path d="M0 0 C2.875 1.375 2.875 1.375 5 4 C5.8164307 8.83966652 5.45278596 12.91725098 3.5625 17.4375 C2.72196689 22.76087635 5.41477348 25.56018667 8.3984375 29.83984375 C9.19121094 30.90912109 9.19121094 30.90912109 10 32 C10.99580078 31.80470703 10.99580078 31.80470703 12.01171875 31.60546875 C19.15057915 30.49034749 19.15057915 30.49034749 23.125 32.875 C25.68674345 37.14457241 26.07168171 40.14681283 25 45 C22.07232486 52.03054383 18.73128782 55.69554961 12 59 C3.9385655 66.61864165 -3.24861279 75.14871985 -10.1875 83.78515625 C-12 86 -12 86 -14 88 C-14.49572089 89.93156851 -14.49572089 89.93156851 -14.8125 92.125 C-16.10014754 98.37210251 -18.95234826 102.89846269 -23.375 107.4375 C-26.69255843 109.41223716 -29.14631757 109.92993305 -33 110 C-35.4375 108.75 -35.4375 108.75 -37 107 C-37 106.01 -37 105.02 -37 104 C-41.04270201 104.05204811 -45.08329596 104.14716903 -49.125 104.25 C-50.26710938 104.26417969 -51.40921875 104.27835937 -52.5859375 104.29296875 C-59.13024854 104.48321035 -62.8998452 104.88095606 -68 109 C-71.02285027 109.71997835 -72.81707184 109.4174332 -76 109 C-78.7676718 106.20073377 -79.43137587 104.07632109 -79.4375 100.1875 C-79.22270085 93.54825349 -76.79343367 90.00693768 -72.375 85.0625 C-70 83 -70 83 -68 83 C-67.87383301 82.27619141 -67.74766602 81.55238281 -67.61767578 80.80664062 C-67.01509813 78.06860398 -66.17750809 75.68485446 -65.1171875 73.09375 C-64.75496094 72.18496094 -64.39273438 71.27617188 -64.01953125 70.33984375 C-63.25541395 68.443894 -62.48455164 66.55064898 -61.70703125 64.66015625 C-61.34738281 63.75136719 -60.98773438 62.84257813 -60.6171875 61.90625 C-60.28315918 61.08447266 -59.94913086 60.26269531 -59.60498047 59.41601562 C-58.89417675 56.57739027 -59.25621705 54.80269872 -60 52 C-60.76194411 45.93710186 -60.05792442 41.81590508 -56.484375 36.796875 C-53.19567654 32.81581896 -50.78916775 30.18508632 -45.375 29.625 C-42 30 -42 30 -40.08251953 30.69335938 C-35.55472289 31.36005487 -31.40160412 26.99406232 -27.875 24.5 C-26.95589844 23.88640625 -26.03679687 23.2728125 -25.08984375 22.640625 C-19.70339982 18.87565097 -17.26689646 16.67857765 -16 10 C-14.125 7.3828125 -14.125 7.3828125 -12 5.125 C-10.948125 3.98417969 -10.948125 3.98417969 -9.875 2.8203125 C-6.68085538 -0.28066957 -4.38729596 -0.43012706 0 0 Z " fill="#0C0C0C" transform="translate(142,56)"/>
<path d="M0 0 C8 4 8 4 9 5 C9.04712667 6.52205472 9.02254246 8.046382 8.96980286 9.56825256 C8.9391272 10.55620316 8.90845154 11.54415375 8.87684631 12.56204224 C8.83861252 13.65539886 8.80037872 14.74875549 8.76098633 15.87524414 C8.40033027 27.64678644 8.17161588 39.41562788 8.022542 51.19130802 C7.92792323 58.32436518 7.78109212 65.4494847 7.51538086 72.57836914 C4.56857258 102.29362334 4.56857258 102.29362334 12.6574707 129.08114624 C18.62670373 135.20637828 26.27819351 137.7698963 34.41175842 139.90206909 C40.28712785 141.69981586 45.21087073 144.92963855 50.375 148.1875 C52.30752496 149.32656708 54.24326648 150.46021257 56.18359375 151.5859375 C58.12261134 152.7235911 60.06140851 153.86162047 62 155 C63.04172363 155.61133789 64.08344727 156.22267578 65.15673828 156.85253906 C68.25169773 158.67020614 71.34499408 160.49066221 74.4375 162.3125 C75.38608887 162.87026123 76.33467773 163.42802246 77.31201172 164.00268555 C78.17713379 164.51355713 79.04225586 165.02442871 79.93359375 165.55078125 C80.69728271 166.00106689 81.46097168 166.45135254 82.24780273 166.9152832 C84 168 84 168 85 169 C85.1424478 172.33327842 85.04222103 175.66453893 85 179 C77.26390866 174.82548024 69.61012082 170.52461028 62 166.125 C60.88278564 165.48006592 59.76557129 164.83513184 58.61450195 164.1706543 C49.40862088 158.84763781 40.25440357 153.43928489 31.12695312 147.98291016 C20.8274467 141.84332154 10.41863917 135.9535081 0 130 C0 87.1 0 44.2 0 0 Z " fill="#F5F5F5" transform="translate(21,102)"/>
<path d="M0 0 C2.65357744 1.48182714 4.44994285 3.13158255 6.47583008 5.38256836 C-78.02416992 54.13256836 -78.02416992 54.13256836 -81.27514648 56.00805664 C-83.43864468 57.2562787 -85.60205636 58.50465075 -87.76538086 59.75317383 C-93.22982009 62.90662092 -98.69580638 66.05732931 -104.16479492 69.20288086 C-105.25945068 69.83323242 -106.35410645 70.46358398 -107.48193359 71.11303711 C-109.65792477 72.36522039 -111.8351512 73.6152598 -114.01367188 74.86303711 C-119.32653312 77.9158562 -124.59362859 81.02065478 -129.80151367 84.24975586 C-130.79828125 84.86125488 -131.79504883 85.47275391 -132.82202148 86.1027832 C-134.69471059 87.25620527 -136.55808663 88.42494287 -138.40991211 89.61157227 C-142.42654599 92.07375489 -144.6506253 93.38952195 -149.44995117 93.35131836 C-152.52416992 92.38256836 -152.52416992 92.38256836 -155.52416992 90.38256836 C-154.25589267 86.57773659 -153.09295823 86.27272018 -149.65307617 84.33569336 C-148.61731445 83.74594727 -147.58155273 83.15620117 -146.5144043 82.54858398 C-145.38325195 81.91629883 -144.25209961 81.28401367 -143.08666992 80.63256836 C-141.90578351 79.9636127 -140.72545294 79.29367496 -139.5456543 78.62280273 C-137.09158036 77.22834943 -134.63515588 75.83817523 -132.17700195 74.45092773 C-126.60337493 71.30089674 -121.06559818 68.08878023 -115.52416992 64.88256836 C-113.35767429 63.63227194 -111.19100697 62.38227298 -109.02416992 61.13256836 C-107.95166992 60.51381836 -106.87916992 59.89506836 -105.77416992 59.25756836 C-70.02416992 38.63256836 -70.02416992 38.63256836 -66.77319336 36.75708008 C-64.60969516 35.50885802 -62.44628349 34.26048597 -60.28295898 33.01196289 C-54.81851975 29.8585158 -49.35253347 26.7078074 -43.88354492 23.56225586 C-42.78872803 22.93182373 -41.69391113 22.3013916 -40.56591797 21.65185547 C-38.39151192 20.40056002 -36.21591394 19.15133327 -34.0390625 17.90429688 C-28.70255436 14.83746459 -23.41114311 11.71831529 -18.17651367 8.48022461 C-17.17072266 7.86421387 -16.16493164 7.24820312 -15.12866211 6.61352539 C-13.23037717 5.44640109 -11.34108846 4.26447348 -9.46264648 3.06567383 C-8.62056641 2.55020996 -7.77848633 2.03474609 -6.91088867 1.50366211 C-5.81587036 0.81421509 -5.81587036 0.81421509 -4.69873047 0.11083984 C-2.52416992 -0.61743164 -2.52416992 -0.61743164 0 0 Z " fill="#F6F6F6" transform="translate(180.524169921875,7.617431640625)"/>
<path d="M0 0 C0 3.3 0 6.6 0 10 C-84.5 58.75 -84.5 58.75 -87.75048828 60.62524414 C-89.91557071 61.87435518 -92.08060982 63.12354129 -94.24560547 64.37280273 C-99.68615706 67.51202309 -105.12747216 70.64990563 -110.5703125 73.78515625 C-112.75525238 75.04419439 -114.94014849 76.30330851 -117.125 77.5625 C-118.18452881 78.17295166 -119.24405762 78.78340332 -120.33569336 79.41235352 C-125.87841545 82.60941084 -131.4124487 85.82055596 -136.93359375 89.0546875 C-138.04653809 89.70622803 -139.15948242 90.35776855 -140.30615234 91.02905273 C-142.43917189 92.27915124 -144.57105264 93.53119536 -146.70166016 94.78540039 C-147.64702637 95.3396167 -148.59239258 95.89383301 -149.56640625 96.46484375 C-150.40115479 96.955896 -151.23590332 97.44694824 -152.09594727 97.95288086 C-154 99 -154 99 -155 99 C-155.86522079 95.39121585 -155.99820434 92.59403179 -155 89 C-152.54492188 86.98095703 -152.54492188 86.98095703 -149.28125 85.1328125 C-148.40633659 84.62676987 -148.40633659 84.62676987 -147.51374817 84.11050415 C-145.68478811 83.0570082 -143.84294259 82.02878791 -142 81 C-139.81634136 79.73709136 -137.63274631 78.47407277 -135.44921875 77.2109375 C-133.19638318 75.93040618 -130.94244231 74.65181782 -128.6875 73.375 C-126.21129555 71.96780165 -123.7363197 70.55845344 -121.26171875 69.1484375 C-120.64569794 68.79755066 -120.02967712 68.44666382 -119.39498901 68.08514404 C-113.57259607 64.76448147 -107.78322638 61.38836939 -102 58 C-93.36516449 52.94345419 -84.69393437 47.95392739 -76 43 C-66.29044384 37.46680184 -56.61346092 31.8811919 -46.96826172 26.23632812 C-38.30242125 21.16689111 -29.60706716 16.14963486 -20.90185547 11.14819336 C-15.20087072 7.86771069 -9.54549644 4.53502149 -3.95654297 1.06640625 C-2 0 -2 0 0 0 Z " fill="#F6F6F6" transform="translate(267,182)"/>
<path d="M0 0 C3.58243646 3.38341221 6.64295527 6.64853282 9 11 C9 13.375 9 13.375 8 16 C7.85304687 16.64324219 7.70609375 17.28648438 7.5546875 17.94921875 C6.70409887 20.593865 5.96722458 22.00360048 4 24 C-1.27843336 26.09619201 -7.2718281 28 -13 28 C-15.17059079 19.16259463 -12.43189797 11.66254229 -8 4 C-5.26656137 1.68220052 -3.4922959 1.02360397 0 0 Z " fill="#F7F7F7" transform="translate(139,81)"/>
<path d="M0 0 C3.625 0.375 3.625 0.375 7 1 C7.58818584 6.92542777 7.94674116 11.53289106 4.125 16.375 C3.59132813 16.96023437 3.05765625 17.54546875 2.5078125 18.1484375 C0.5810559 20.3264454 0.5810559 20.3264454 -1 25 C-7.6 25 -14.2 25 -21 25 C-18.75014623 17.12551181 -18.75014623 17.12551181 -15.15625 13.88671875 C-14.40472656 13.19642578 -13.65320313 12.50613281 -12.87890625 11.79492188 C-12.09386719 11.09947266 -11.30882813 10.40402344 -10.5 9.6875 C-9.71496094 8.97271484 -8.92992188 8.25792969 -8.12109375 7.52148438 C-6.6718703 6.20276561 -5.21734416 4.88983365 -3.75585938 3.5847168 C-2.47108739 2.42517078 -1.22376183 1.22376183 0 0 Z " fill="#F6F6F6" transform="translate(105,129)"/>
<path d="M0 0 C2.49361571 1.20381448 4.68143083 2.45428722 7 4 C7.26954991 13.31631883 7.26954991 13.31631883 4.5390625 16.9375 C2.42779702 18.7299213 0.2248729 20.35064627 -2 22 C-4.0189264 23.79636758 -6.01703759 25.60279346 -8 27.4375 C-8.94875 28.30246094 -9.8975 29.16742188 -10.875 30.05859375 C-11.57625 30.69925781 -12.2775 31.33992188 -13 32 C-14.32 31.01 -15.64 30.02 -17 29 C-16.03965911 20.64066905 -14.14802171 9.70922272 -7.63671875 3.88671875 C-5.4492051 2.70399606 -3.35028756 1.79662378 -1 1 C-0.67 0.67 -0.34 0.34 0 0 Z " fill="#F6F6F6" transform="translate(98,109)"/>
<path d="M0 0 C0.7421875 1.6796875 0.7421875 1.6796875 1 4 C-0.5546875 6.4453125 -0.5546875 6.4453125 -2.875 9.125 C-3.7 10.08792969 -4.525 11.05085938 -5.375 12.04296875 C-8.57914301 15.65239771 -11.78826003 19.25532946 -15.0546875 22.80859375 C-16.82528214 24.80317928 -18.43628241 26.84128295 -20 29 C-22.31 28.67 -24.62 28.34 -27 28 C-27.76762176 18.41325712 -27.76762176 18.41325712 -25.9921875 15.14453125 C-24.71259569 13.71552602 -23.35635747 12.35635747 -22 11 C-21.62617187 10.01386719 -21.25234375 9.02773437 -20.8671875 8.01171875 C-18.19418082 3.70023726 -15.19483653 3.27781516 -10.4375 2.125 C-9.65697266 1.91359375 -8.87644531 1.7021875 -8.07226562 1.484375 C-2.48658178 0 -2.48658178 0 0 0 Z " fill="#F5F5F5" transform="translate(145,110)"/>
<path d="M0 0 C2.76287929 1.5343758 5.39680976 3.20948082 8 5 C7.62875253 7.50259383 7.34482217 8.69989069 5.40527344 10.38793945 C3.19493105 11.71177101 0.98421982 13.02920845 -1.25 14.3125 C-2.01441406 14.77978516 -2.77882813 15.24707031 -3.56640625 15.72851562 C-9.18574589 19.01374269 -9.18574589 19.01374269 -12.77734375 18.953125 C-15.11942148 17.94878938 -17.18613403 16.84306395 -19.3125 15.4375 C-20.00988281 14.98246094 -20.70726563 14.52742187 -21.42578125 14.05859375 C-21.94527344 13.70925781 -22.46476562 13.35992187 -23 13 C-22.64022731 10.30750761 -22.27448161 9.23560653 -20.1796875 7.4375 C-17.79217492 5.94833961 -15.40459631 4.46146453 -13 3 C-12.35933594 2.56816406 -11.71867187 2.13632813 -11.05859375 1.69140625 C-6.96240127 -0.95691506 -4.62318902 -1.60396354 0 0 Z " fill="#0D0D0D" transform="translate(108,196)"/>
<path d="M0 0 C2.45703125 1.3125 2.45703125 1.3125 4.8125 3 C5.60269531 3.556875 6.39289063 4.11375 7.20703125 4.6875 C7.79871094 5.120625 8.39039063 5.55375 9 6 C8.62996821 8.51467856 8.34662209 9.70129657 6.3894043 11.38793945 C5.70789307 11.79230225 5.02638184 12.19666504 4.32421875 12.61328125 C3.57849609 13.05607422 2.83277344 13.49886719 2.06445312 13.95507812 C0.88786133 14.62700195 0.88786133 14.62700195 -0.3125 15.3125 C-1.08529297 15.77978516 -1.85808594 16.24707031 -2.65429688 16.72851562 C-3.40388672 17.16486328 -4.15347656 17.60121094 -4.92578125 18.05078125 C-5.95312378 18.64886597 -5.95312378 18.64886597 -7.0012207 19.2590332 C-9.45796868 20.16977341 -10.57189291 19.89319766 -13 19 C-14.60590715 18.18907006 -16.18941006 17.33254423 -17.75 16.4375 C-18.54921875 15.98246094 -19.3484375 15.52742187 -20.171875 15.05859375 C-20.77515625 14.70925781 -21.3784375 14.35992187 -22 14 C-22 12.68 -22 11.36 -22 10 C-20.51879883 8.62792969 -20.51879883 8.62792969 -18.45703125 7.421875 C-17.71259766 6.98359375 -16.96816406 6.5453125 -16.20117188 6.09375 C-15.41291016 5.6503125 -14.62464844 5.206875 -13.8125 4.75 C-13.04357422 4.29109375 -12.27464844 3.8321875 -11.48242188 3.359375 C-7.43321228 1.02369359 -4.78779409 -0.42049662 0 0 Z " fill="#0D0D0D" transform="translate(187,174)"/>
<path d="M0 0 C2.74966615 1.54573069 5.38309306 3.24024372 8 5 C7.62875253 7.50259383 7.34482217 8.69989069 5.40527344 10.38793945 C3.19493105 11.71177101 0.98421982 13.02920845 -1.25 14.3125 C-2.01441406 14.77978516 -2.77882812 15.24707031 -3.56640625 15.72851562 C-9.18574589 19.01374269 -9.18574589 19.01374269 -12.77734375 18.953125 C-15.11942148 17.94878938 -17.18613403 16.84306395 -19.3125 15.4375 C-20.00988281 14.98246094 -20.70726563 14.52742187 -21.42578125 14.05859375 C-21.94527344 13.70925781 -22.46476562 13.35992187 -23 13 C-22.62367486 10.61953196 -22.39501688 9.34239204 -20.54125977 7.7355957 C-19.93080811 7.38585693 -19.32035645 7.03611816 -18.69140625 6.67578125 C-17.69463867 6.09280273 -17.69463867 6.09280273 -16.67773438 5.49804688 C-15.97970703 5.10681641 -15.28167969 4.71558594 -14.5625 4.3125 C-13.86833984 3.90966797 -13.17417969 3.50683594 -12.45898438 3.09179688 C-4.65682246 -1.41729379 -4.65682246 -1.41729379 0 0 Z " fill="#0C0C0C" transform="translate(137,179)"/>
<path d="M0 0 C2.23828125 1.19140625 2.23828125 1.19140625 4.3125 2.5625 C5.00988281 3.01753906 5.70726562 3.47257813 6.42578125 3.94140625 C7.20501953 4.46541016 7.20501953 4.46541016 8 5 C7.8984375 6.7421875 7.8984375 6.7421875 7 9 C4.88484212 10.54412352 2.88754306 11.84256719 0.625 13.125 C-0.54960582 13.81488857 -1.72408899 14.50498601 -2.8984375 15.1953125 C-3.92195313 15.79085937 -4.94546875 16.38640625 -6 17 C-6.99 17.66 -7.98 18.32 -9 19 C-14.05079484 18.85569158 -17.94403679 15.72745913 -22 13 C-21.984375 10.8046875 -21.984375 10.8046875 -21 8 C-18.62901388 5.99129069 -15.98194643 4.58716851 -13.25 3.125 C-12.17492187 2.50238281 -12.17492187 2.50238281 -11.078125 1.8671875 C-4.42458858 -1.80204214 -4.42458858 -1.80204214 0 0 Z " fill="#0C0C0C" transform="translate(151,221)"/>
<path d="M0 0 C0.68449219 0.41894531 1.36898437 0.83789062 2.07421875 1.26953125 C2.77160156 1.67558594 3.46898438 2.08164063 4.1875 2.5 C5.76171875 4.08203125 5.76171875 4.08203125 5.9921875 6.7578125 C5.91613281 7.52480469 5.84007813 8.29179687 5.76171875 9.08203125 C3.18161679 10.56708994 0.59794316 12.04520436 -1.98828125 13.51953125 C-2.71789062 13.94041016 -3.4475 14.36128906 -4.19921875 14.79492188 C-4.90820312 15.19775391 -5.6171875 15.60058594 -6.34765625 16.015625 C-7.3217041 16.57334595 -7.3217041 16.57334595 -8.31542969 17.14233398 C-10.31695061 18.12047696 -12.03553509 18.74331977 -14.23828125 19.08203125 C-16.81640625 17.8671875 -16.81640625 17.8671875 -19.48828125 16.14453125 C-20.3803125 15.57863281 -21.27234375 15.01273438 -22.19140625 14.4296875 C-22.866875 13.98496094 -23.54234375 13.54023438 -24.23828125 13.08203125 C-24.22265625 10.8828125 -24.22265625 10.8828125 -23.23828125 8.08203125 C-20.86494454 6.09679218 -18.21559848 4.71241651 -15.48828125 3.26953125 C-14.7715625 2.86283203 -14.05484375 2.45613281 -13.31640625 2.03710938 C-8.61803808 -0.53231072 -5.22813405 -2.14417365 0 0 Z " fill="#0C0C0C" transform="translate(80.23828125,212.91796875)"/>
<path d="M0 0 C4.3219559 1.22319507 7.63598173 3.40872728 11.3125 5.9375 C10.94125253 8.44009383 10.65732217 9.63739069 8.71777344 11.32543945 C6.50743105 12.64927101 4.29671982 13.96670845 2.0625 15.25 C1.29808594 15.71728516 0.53367188 16.18457031 -0.25390625 16.66601562 C-5.87324589 19.95124269 -5.87324589 19.95124269 -9.46484375 19.890625 C-11.80692148 18.88628938 -13.87363403 17.78056395 -16 16.375 C-16.69738281 15.91996094 -17.39476562 15.46492187 -18.11328125 14.99609375 C-18.63277344 14.64675781 -19.15226563 14.29742187 -19.6875 13.9375 C-19.5859375 12.1953125 -19.5859375 12.1953125 -18.6875 9.9375 C-16.57234212 8.39337648 -14.57504306 7.09493281 -12.3125 5.8125 C-11.13789418 5.12261143 -9.96341101 4.43251399 -8.7890625 3.7421875 C-7.76554688 3.14664063 -6.74203125 2.55109375 -5.6875 1.9375 C-2.6875 -0.0625 -2.6875 -0.0625 0 0 Z " fill="#0C0C0C" transform="translate(213.6875,157.0625)"/>
<path d="M0 0 C2.23828125 1.05078125 2.23828125 1.05078125 4.3125 2.3125 C5.00988281 2.72113281 5.70726562 3.12976563 6.42578125 3.55078125 C7.20501953 4.26814453 7.20501953 4.26814453 8 5 C8 6.32 8 7.64 8 9 C5.63221009 11.24273336 2.69861613 12.69867335 -0.125 14.3125 C-0.88554687 14.77978516 -1.64609375 15.24707031 -2.4296875 15.72851562 C-5.96192919 17.79000496 -8.16202358 19.01581088 -12.3125 18.9375 C-14.80693131 18.06734954 -16.73553086 17.22316341 -18.875 15.6875 C-19.47054687 15.27886719 -20.06609375 14.87023437 -20.6796875 14.44921875 C-22 13 -22 13 -22 9 C-20.51879883 7.61206055 -20.51879883 7.61206055 -18.45703125 6.38671875 C-17.71259766 5.94392578 -16.96816406 5.50113281 -16.20117188 5.04492188 C-15.0187793 4.37299805 -15.0187793 4.37299805 -13.8125 3.6875 C-13.04357422 3.22021484 -12.27464844 2.75292969 -11.48242188 2.27148438 C-4.38512283 -1.8528688 -4.38512283 -1.8528688 0 0 Z " fill="#0C0C0C" transform="translate(180,204)"/>
<path d="M0 0 C2.23828125 1.05078125 2.23828125 1.05078125 4.3125 2.3125 C5.00988281 2.72113281 5.70726562 3.12976563 6.42578125 3.55078125 C7.20501953 4.26814453 7.20501953 4.26814453 8 5 C8 6.32 8 7.64 8 9 C5.63221009 11.24273336 2.69861613 12.69867335 -0.125 14.3125 C-0.88554687 14.77978516 -1.64609375 15.24707031 -2.4296875 15.72851562 C-5.96724729 17.79310871 -8.15490751 19.01993143 -12.3125 18.921875 C-15.93540828 17.67913321 -18.74767497 16.01644152 -22 14 C-22.51171875 11.8359375 -22.51171875 11.8359375 -22 9 C-19.53161062 6.77136061 -16.7070834 5.23915035 -13.8125 3.625 C-13.04357422 3.16222656 -12.27464844 2.69945312 -11.48242188 2.22265625 C-4.39908402 -1.85102303 -4.39908402 -1.85102303 0 0 Z " fill="#0D0D0D" transform="translate(166,162)"/>
<path d="M0 0 C4.01329772 1.33776591 7.31755659 3.58730232 10.8125 5.9375 C10.79296875 8.1328125 10.79296875 8.1328125 9.8125 10.9375 C7.46433394 12.94844997 4.83899284 14.35093433 2.125 15.8125 C1.41666016 16.22757813 0.70832031 16.64265625 -0.02148438 17.0703125 C-3.43719159 18.96267107 -5.49930625 19.96128739 -9.46484375 19.82421875 C-13.13136206 18.6301016 -15.91467696 16.96665028 -19.1875 14.9375 C-19.0859375 12.69921875 -19.0859375 12.69921875 -18.1875 9.9375 C-16.05232898 8.30524116 -14.13731995 7.03516448 -11.8125 5.75 C-10.63795545 5.06912319 -9.46347422 4.38813715 -8.2890625 3.70703125 C-7.26554688 3.12308594 -6.24203125 2.53914062 -5.1875 1.9375 C-2.1875 -0.0625 -2.1875 -0.0625 0 0 Z " fill="#0C0C0C" transform="translate(192.1875,144.0625)"/>
<path d="M0 0 C2.63400573 1.41688139 4.64176309 3.12303593 7 5 C6.62996821 7.51467856 6.34662209 8.70129657 4.3894043 10.38793945 C3.70789307 10.79230225 3.02638184 11.19666504 2.32421875 11.61328125 C1.57849609 12.05607422 0.83277344 12.49886719 0.06445312 12.95507812 C-1.11213867 13.62700195 -1.11213867 13.62700195 -2.3125 14.3125 C-3.08529297 14.77978516 -3.85808594 15.24707031 -4.65429688 15.72851562 C-5.40388672 16.16486328 -6.15347656 16.60121094 -6.92578125 17.05078125 C-7.95312378 17.64886597 -7.95312378 17.64886597 -9.0012207 18.2590332 C-11.45467616 19.16855285 -12.57711966 18.89775948 -15 18 C-16.44545269 17.19550534 -17.86300412 16.33904732 -19.25 15.4375 C-19.95640625 14.98246094 -20.6628125 14.52742187 -21.390625 14.05859375 C-21.92171875 13.70925781 -22.4528125 13.35992187 -23 13 C-22.9453125 10.8046875 -22.9453125 10.8046875 -22 8 C-19.84314449 6.00540615 -17.40833047 4.59471844 -14.875 3.125 C-14.22273438 2.70992187 -13.57046875 2.29484375 -12.8984375 1.8671875 C-8.27700191 -0.88366702 -5.37502496 -1.51636358 0 0 Z " fill="#0B0B0B" transform="translate(123,238)"/>
<path d="M0 0 C4.01329772 1.33776591 7.31755659 3.58730232 10.8125 5.9375 C10.79296875 8.1328125 10.79296875 8.1328125 9.8125 10.9375 C7.46433394 12.94844997 4.83899284 14.35093433 2.125 15.8125 C1.41666016 16.22757813 0.70832031 16.64265625 -0.02148438 17.0703125 C-3.42557082 18.95623297 -5.51422592 19.95435191 -9.46484375 19.85546875 C-13.41306366 18.52428987 -15.91188631 16.49247868 -19.1875 13.9375 C-19.0859375 12.1953125 -19.0859375 12.1953125 -18.1875 9.9375 C-16.07234212 8.39337648 -14.07504306 7.09493281 -11.8125 5.8125 C-10.63789418 5.12261143 -9.46341101 4.43251399 -8.2890625 3.7421875 C-7.26554687 3.14664063 -6.24203125 2.55109375 -5.1875 1.9375 C-2.1875 -0.0625 -2.1875 -0.0625 0 0 Z " fill="#0B0B0B" transform="translate(97.1875,224.0625)"/>
<path d="M0 0 C1.44545269 0.80449466 2.86300412 1.66095268 4.25 2.5625 C4.95640625 3.01753906 5.6628125 3.47257813 6.390625 3.94140625 C7.18726563 4.46541016 7.18726563 4.46541016 8 5 C7.98046875 7.1953125 7.98046875 7.1953125 7 10 C4.65183394 12.01094997 2.02649284 13.41343433 -0.6875 14.875 C-1.39583984 15.29007813 -2.10417969 15.70515625 -2.83398438 16.1328125 C-6.23807082 18.01873297 -8.32672592 19.01685191 -12.27734375 18.91796875 C-16.22556366 17.58678987 -18.72438631 15.55497868 -22 13 C-21.62996821 10.48532144 -21.34662209 9.29870343 -19.3894043 7.61206055 C-18.70789307 7.20769775 -18.02638184 6.80333496 -17.32421875 6.38671875 C-16.57849609 5.94392578 -15.83277344 5.50113281 -15.06445312 5.04492188 C-13.88786133 4.37299805 -13.88786133 4.37299805 -12.6875 3.6875 C-11.91470703 3.22021484 -11.14191406 2.75292969 -10.34570312 2.27148438 C-9.59611328 1.83513672 -8.84652344 1.39878906 -8.07421875 0.94921875 C-7.04687622 0.35113403 -7.04687622 0.35113403 -5.9987793 -0.2590332 C-3.54532384 -1.16855285 -2.42288034 -0.89775948 0 0 Z " fill="#0B0B0B" transform="translate(129,208)"/>
<path d="M0 0 C1.44545269 0.80449466 2.86300412 1.66095268 4.25 2.5625 C4.95640625 3.01753906 5.6628125 3.47257813 6.390625 3.94140625 C7.18726563 4.46541016 7.18726563 4.46541016 8 5 C7.98046875 7.1953125 7.98046875 7.1953125 7 10 C4.65183394 12.01094997 2.02649284 13.41343433 -0.6875 14.875 C-1.39583984 15.29007813 -2.10417969 15.70515625 -2.83398438 16.1328125 C-6.23807082 18.01873297 -8.32672592 19.01685191 -12.27734375 18.91796875 C-16.22556366 17.58678987 -18.72438631 15.55497868 -22 13 C-21.62996821 10.48532144 -21.34662209 9.29870343 -19.3894043 7.61206055 C-18.70789307 7.20769775 -18.02638184 6.80333496 -17.32421875 6.38671875 C-16.57849609 5.94392578 -15.83277344 5.50113281 -15.06445312 5.04492188 C-13.88786133 4.37299805 -13.88786133 4.37299805 -12.6875 3.6875 C-11.91470703 3.22021484 -11.14191406 2.75292969 -10.34570312 2.27148438 C-9.59611328 1.83513672 -8.84652344 1.39878906 -8.07421875 0.94921875 C-7.04687622 0.35113403 -7.04687622 0.35113403 -5.9987793 -0.2590332 C-3.54532384 -1.16855285 -2.42288034 -0.89775948 0 0 Z " fill="#0B0B0B" transform="translate(209,187)"/>
<path d="M0 0 C2.5546875 1.3125 2.5546875 1.3125 4.875 3 C5.65617187 3.556875 6.43734375 4.11375 7.2421875 4.6875 C7.82226562 5.120625 8.40234375 5.55375 9 6 C7.48943052 10.66026755 3.78934774 12.42639136 -0.1875 14.8125 C-0.83525391 15.23208984 -1.48300781 15.65167969 -2.15039062 16.08398438 C-5.67432523 18.22087579 -7.51694014 19.01008476 -11.7421875 18.921875 C-16.12078819 17.68284651 -18.46579948 15.81293511 -22 13 C-21.40088163 9.32489072 -21.08281873 9.06168004 -17.83203125 6.640625 C-16.50010752 5.83058166 -15.15983773 5.03413779 -13.8125 4.25 C-13.15185547 3.83878906 -12.49121094 3.42757812 -11.81054688 3.00390625 C-7.77271913 0.60432846 -4.81622837 -0.77487169 0 0 Z " fill="#0B0B0B" transform="translate(238,170)"/>
<path d="M0 0 C2.23828125 1.09375 2.23828125 1.09375 4.3125 2.5 C5.00988281 2.9640625 5.70726562 3.428125 6.42578125 3.90625 C6.94527344 4.2671875 7.46476562 4.628125 8 5 C7.9453125 7.1953125 7.9453125 7.1953125 7 10 C4.84314449 11.99459385 2.40833047 13.40528156 -0.125 14.875 C-0.77726562 15.29007813 -1.42953125 15.70515625 -2.1015625 16.1328125 C-5.63751195 18.23754432 -7.53254205 19.01023631 -11.74609375 18.91796875 C-16.1241563 17.68286107 -18.46708716 15.81191022 -22 13 C-21.62665661 10.58282451 -21.39232066 9.33419908 -19.49707031 7.71972656 C-18.86381836 7.36362305 -18.23056641 7.00751953 -17.578125 6.640625 C-16.88203125 6.24746094 -16.1859375 5.85429687 -15.46875 5.44921875 C-14.37046875 4.85560547 -14.37046875 4.85560547 -13.25 4.25 C-12.53328125 3.83878906 -11.8165625 3.42757812 -11.078125 3.00390625 C-4.2211832 -0.79010015 -4.2211832 -0.79010015 0 0 Z " fill="#0B0B0B" transform="translate(158,191)"/>
<path d="M0 0 C-0.95635695 3.02007457 -1.95950918 6.0085889 -3 9 C-3.3403125 10.03253906 -3.680625 11.06507812 -4.03125 12.12890625 C-7.35867834 21.2905755 -7.35867834 21.2905755 -12.0625 23.625 C-13.36705221 24.10548854 -14.67981027 24.56431114 -16 25 C-16.63808594 25.42023438 -17.27617188 25.84046875 -17.93359375 26.2734375 C-18.61550781 26.51320313 -19.29742187 26.75296875 -20 27 C-22.75 25.625 -22.75 25.625 -25 24 C-25.02366444 19.62207779 -24.42271433 15.68765364 -22 12 C-17.12744067 7.3716153 -6.84854546 -2.28284849 0 0 Z " fill="#F5F5F5" transform="translate(127,81)"/>
<path d="M0 0 C1.1446875 0.3403125 1.1446875 0.3403125 2.3125 0.6875 C1.87759678 6.12379023 0.7023616 9.4003221 -2.6875 13.6875 C-5.6875 15.6875 -5.6875 15.6875 -7.875 15.3125 C-8.473125 15.10625 -9.07125 14.9 -9.6875 14.6875 C-10.19382171 9.37112203 -8.93458376 6.86232197 -5.6875 2.6875 C-5.213125 2.048125 -4.73875 1.40875 -4.25 0.75 C-2.6875 -0.3125 -2.6875 -0.3125 0 0 Z " fill="#ECECEC" transform="translate(139.6875,62.3125)"/>
<path d="M0 0 C-0.02852984 6.2908306 -1.15319353 10.04770784 -5.33203125 14.78515625 C-7 16 -7 16 -11 16 C-11.42014232 9.90793639 -11.06715472 6.88058567 -7 2 C-4 0 -4 0 0 0 Z " fill="#F1F1F1" transform="translate(121,144)"/>
<path d="M0 0 C1.32 0.33 2.64 0.66 4 1 C3.59572994 6.86191589 2.80916142 10.2945653 -1 15 C-4 17 -4 17 -7 17 C-7.6261986 12.70606672 -7.88559935 9.35170427 -5.44140625 5.62109375 C-3.69583715 3.65776754 -1.91737225 1.79509085 0 0 Z " fill="#EEEEEE" transform="translate(76,143)"/>
<path d="M0 0 C-0.02852984 6.2908306 -1.15319353 10.04770784 -5.33203125 14.78515625 C-7 16 -7 16 -11 16 C-11.42014232 9.90793639 -11.06715472 6.88058567 -7 2 C-4 0 -4 0 0 0 Z " fill="#F1F1F1" transform="translate(121,108)"/>
<path d="M0 0 C0.78375 0.04125 1.5675 0.0825 2.375 0.125 C2.97940029 4.9602023 2.52937501 7.47340471 -0.3125 11.5 C-2.4159165 14.08805165 -3.29311753 15.00956262 -6.5 16.125 C-7.20125 16.125 -7.9025 16.125 -8.625 16.125 C-9.0476988 9.99586741 -8.63463916 7.07808367 -4.625 2.125 C-2.625 0.125 -2.625 0.125 0 0 Z " fill="#F1F1F1" transform="translate(96.625,91.875)"/>
<path d="M0 0 C0.50045898 6.13062246 -0.61557456 9.06840864 -4 14 C-7 16 -7 16 -11 16 C-11.38235283 9.50000189 -10.16424871 6.58313555 -6.0625 1.6875 C-4 0 -4 0 0 0 Z " fill="#F4F4F4" transform="translate(161,93)"/>
<path d="M0 0 C-2.37417093 2.62408366 -4.84911879 4.38613402 -8 6 C-9.32 6 -10.64 6 -12 6 C-12 5.34 -12 4.68 -12 4 C-10.390625 2.67578125 -10.390625 2.67578125 -8.25 1.3125 C-7.55390625 0.85488281 -6.8578125 0.39726562 -6.140625 -0.07421875 C-3.60909275 -1.16906025 -2.53899138 -0.9435441 0 0 Z " fill="#DBDBDB" transform="translate(121,244)"/>
<path d="M0 0 C-1.22112032 3.66336097 -2.86720482 4.35042014 -6.11328125 6.23046875 C-8 7 -8 7 -12 7 C-12 6.34 -12 5.68 -12 5 C-10.56705502 4.15885829 -9.12845595 3.32734313 -7.6875 2.5 C-6.88699219 2.0359375 -6.08648437 1.571875 -5.26171875 1.09375 C-3 0 -3 0 0 0 Z " fill="#DADADA" transform="translate(77,218)"/>
<path d="M0 0 C0 0.66 0 1.32 0 2 C-1.609375 3.32421875 -1.609375 3.32421875 -3.75 4.6875 C-4.44609375 5.14511719 -5.1421875 5.60273438 -5.859375 6.07421875 C-8.39090725 7.16906025 -9.46100862 6.9435441 -12 6 C-8.42811627 2.0521285 -5.4000395 0 0 0 Z " fill="#DCDCDC" transform="translate(128,214)"/>
<path d="M0 0 C-2.74423966 2.94751667 -5.36219655 5.22773678 -9 7 C-9.99 6.67 -10.98 6.34 -12 6 C-4.89473684 -1.63157895 -4.89473684 -1.63157895 0 0 Z " fill="#DADADA" transform="translate(179,210)"/>
<path d="M0 0 C0.99 0.66 1.98 1.32 3 2 C-1.95 4.97 -1.95 4.97 -7 8 C-7.99 7.34 -8.98 6.68 -10 6 C-6.7 4.02 -3.4 2.04 0 0 Z " fill="#DBDBDB" transform="translate(133,184)"/>
<path d="M0 0 C-2.37417093 2.62408366 -4.84911879 4.38613402 -8 6 C-9.32 6 -10.64 6 -12 6 C-12 5.34 -12 4.68 -12 4 C-10.390625 2.67578125 -10.390625 2.67578125 -8.25 1.3125 C-7.55390625 0.85488281 -6.8578125 0.39726562 -6.140625 -0.07421875 C-3.60909275 -1.16906025 -2.53899138 -0.9435441 0 0 Z " fill="#D8D8D8" transform="translate(216,164)"/>
<path d="M0 0 C0 0.66 0 1.32 0 2 C-1.43011973 2.86646667 -2.86940619 3.71781829 -4.3125 4.5625 C-5.51326172 5.27599609 -5.51326172 5.27599609 -6.73828125 6.00390625 C-9 7 -9 7 -12 6 C-8.08394163 1.80422318 -5.83338839 0 0 0 Z " fill="#DEDEDE" transform="translate(99,231)"/>
<path d="M0 0 C0.515625 0.2475 1.03125 0.495 1.5625 0.75 C-5.6375 6.75 -5.6375 6.75 -10.4375 6.75 C-9.15564628 2.90443885 -7.65170223 2.32931973 -4.2265625 0.46875 C-2.4375 -0.25 -2.4375 -0.25 0 0 Z " fill="#DDDDDD" transform="translate(105.4375,201.25)"/>
<path d="M0 0 C-1.22112032 3.66336097 -2.86720482 4.35042014 -6.11328125 6.23046875 C-8 7 -8 7 -12 7 C-12 6.34 -12 5.68 -12 5 C-10.56705502 4.15885829 -9.12845595 3.32734313 -7.6875 2.5 C-6.88699219 2.0359375 -6.08648437 1.571875 -5.26171875 1.09375 C-3 0 -3 0 0 0 Z " fill="#DEDEDE" transform="translate(157,197)"/>
<path d="M0 0 C0 0.66 0 1.32 0 2 C-1.43011973 2.86646667 -2.86940619 3.71781829 -4.3125 4.5625 C-5.51326172 5.27599609 -5.51326172 5.27599609 -6.73828125 6.00390625 C-9 7 -9 7 -12 6 C-8.42811627 2.0521285 -5.4000395 0 0 0 Z " fill="#DFDFDF" transform="translate(208,193)"/>
<path d="M0 0 C0.515625 0.2475 1.03125 0.495 1.5625 0.75 C-5.6375 6.75 -5.6375 6.75 -10.4375 6.75 C-9.15564628 2.90443885 -7.65170223 2.32931973 -4.2265625 0.46875 C-2.4375 -0.25 -2.4375 -0.25 0 0 Z " fill="#DDDDDD" transform="translate(185.4375,180.25)"/>
<path d="M0 0 C-1.28185372 3.84556115 -2.78579777 4.42068027 -6.2109375 6.28125 C-8 7 -8 7 -10.4375 6.75 C-10.953125 6.5025 -11.46875 6.255 -12 6 C-4.8 0 -4.8 0 0 0 Z " fill="#DEDEDE" transform="translate(237,176)"/>
<path d="M0 0 C0 0.66 0 1.32 0 2 C-1.43011973 2.86646667 -2.86940619 3.71781829 -4.3125 4.5625 C-5.51326172 5.27599609 -5.51326172 5.27599609 -6.73828125 6.00390625 C-9 7 -9 7 -12 6 C-8.08394163 1.80422318 -5.83338839 0 0 0 Z " fill="#DEDEDE" transform="translate(194,151)"/>
<path d="M0 0 C-2.37417093 2.62408366 -4.84911879 4.38613402 -8 6 C-9.32 6 -10.64 6 -12 6 C-12 5.34 -12 4.68 -12 4 C-10.56988027 3.13353333 -9.13059381 2.28218171 -7.6875 1.4375 C-6.48673828 0.72400391 -6.48673828 0.72400391 -5.26171875 -0.00390625 C-3 -1 -3 -1 0 0 Z " fill="#E1E1E1" transform="translate(150,227)"/>
<path d="M0 0 C0 0.66 0 1.32 0 2 C-1.64453125 3.32421875 -1.64453125 3.32421875 -3.8125 4.6875 C-4.52019531 5.14511719 -5.22789062 5.60273438 -5.95703125 6.07421875 C-8 7 -8 7 -11 6 C-5.2 0 -5.2 0 0 0 Z " fill="#E2E2E2" transform="translate(164,168)"/>
</svg>
